<?xml version="1.0" standalone="no"?>
<!DOCTYPE svg PUBLIC "-//W3C//DTD SVG 20010904//EN"
 "http://www.w3.org/TR/2001/REC-SVG-20010904/DTD/svg10.dtd">
<svg version="1.0" xmlns="http://www.w3.org/2000/svg"
 width="256.000000pt" height="256.000000pt" viewBox="0 0 256.000000 256.000000"
 preserveAspectRatio="xMidYMid meet">
<metadata>
Created by potrace 1.15, written by Peter Selinger 2001-2017
</metadata>
<g transform="translate(0.000000,256.000000) scale(0.100000,-0.100000)"
fill="#000000" stroke="none">
<path d="M1514 2429 c-4 -7 -3 -9 3 -6 13 8 65 -27 56 -38 -5 -4 -3 -5 3 -2
14 8 97 -76 87 -88 -5 -4 -2 -5 5 -1 6 4 13 2 13 -3 2 -18 5 -24 37 -91 48
-99 53 -162 50 -595 l-3 -390 48 3 47 4 0 336 c0 186 -5 369 -10 407 -10 69
-56 183 -87 217 -9 10 -14 21 -11 24 3 3 22 -21 42 -53 20 -31 36 -53 36 -48
0 11 -57 96 -91 135 l-21 25 17 -30 18 -30 -26 24 c-15 13 -24 28 -21 32 6 11
-116 139 -154 162 -23 13 -33 14 -38 6z"/>
<path d="M2167 1183 c-2 -5 -12 -43 -21 -85 -37 -167 -108 -298 -230 -426 -85
-88 -193 -167 -283 -204 l-53 -22 0 -62 0 -62 38 10 c20 5 80 31 132 56 52 25
99 48 104 50 5 3 5 -1 1 -8 -5 -9 -4 -11 4 -6 6 4 9 11 6 16 -3 4 8 16 23 26
48 31 153 137 197 199 87 122 148 274 160 397 3 34 8 78 11 96 l5 32 -45 0
c-25 0 -47 -3 -49 -7z"/>
<path d="M1765 1138 c-2 -7 -9 -33 -15 -58 -19 -70 -64 -152 -119 -212 l-51
-56 0 -71 c0 -39 4 -71 9 -71 17 0 128 88 150 119 12 17 27 30 33 28 6 -1 20
13 30 31 11 17 17 32 14 32 -3 0 -13 -14 -21 -31 -9 -17 -18 -29 -21 -26 -2 2
7 24 21 49 32 58 51 125 60 211 l7 67 -47 0 c-28 0 -47 -5 -50 -12z"/>
</g>
</svg>
